<?xml version="1.0" encoding="UTF-8"?>
<svg version="1.1" xmlns="http://www.w3.org/2000/svg" width="500" height="500">
<path d="M0 0 C1.1849556 -0.00960754 2.36991119 -0.01921509 3.59077454 -0.02911377 C4.87719345 -0.03336365 6.16361237 -0.03761353 7.48901367 -0.04199219 C8.8060881 -0.04769226 10.12316254 -0.05339233 11.48014832 -0.05926514 C14.27192572 -0.06977544 17.06367434 -0.07561757 19.85546875 -0.07910156 C23.42660135 -0.08457954 26.99735135 -0.10859195 30.56836414 -0.13707352 C33.97940662 -0.16022251 37.3903967 -0.16215138 40.80151367 -0.16699219 C42.08185989 -0.17933899 43.36220612 -0.19168579 44.68135071 -0.20440674 C45.87576279 -0.20140564 47.07017487 -0.19840454 48.30078125 -0.1953125 C49.34953934 -0.19895813 50.39829742 -0.20260376 51.47883606 -0.20635986 C55.74232047 0.34039263 58.347627 2.16427739 61.34448242 5.16113281 C61.59781551 7.62819672 61.59781551 7.62819672 61.60276794 10.80114746 C61.60959595 12.00108337 61.61642395 13.20101929 61.62345886 14.43731689 C61.62103916 15.77429229 61.61845485 17.11126739 61.61572266 18.44824219 C61.62010818 19.85101626 61.62540969 21.25378773 61.63156128 22.65655518 C61.64308131 25.68277073 61.6485222 28.70891607 61.64944267 31.7351532 C61.65138176 36.52682876 61.66942913 41.31835936 61.69020081 46.10998535 C61.73942529 58.01932801 61.77021273 69.9287104 61.79150391 81.83813477 C61.8080556 91.07910615 61.83097373 100.31995408 61.87452465 109.56084299 C61.89622637 114.31661033 61.90436566 119.0721428 61.90213192 123.8279562 C61.90380835 126.80031757 61.91791719 129.77252811 61.9353447 132.7448349 C61.94354141 134.76344749 61.93704449 136.78210335 61.92997742 138.80072021 C62.00985498 148.92215748 63.36432279 156.91263676 69.34448242 165.16113281 C69.34448242 165.82113281 69.34448242 166.48113281 69.34448242 167.16113281 C70.00448242 167.16113281 70.66448242 167.16113281 71.34448242 167.16113281 C71.34448242 167.82113281 71.34448242 168.48113281 71.34448242 169.16113281 C72.07666992 169.44730469 72.80885742 169.73347656 73.56323242 170.02832031 C75.24997322 170.71533552 76.92283604 171.44012734 78.56323242 172.23144531 C86.50471845 175.90302276 94.10056338 176.52883766 102.59448242 174.31347656 C110.616632 171.3553089 115.87230478 167.27232217 119.61791992 159.52832031 C120.61904286 157.09296451 121.51871042 154.66064698 122.34448242 152.16113281 C122.67448242 151.17113281 123.00448242 150.18113281 123.34448242 149.16113281 C123.43895604 147.22939834 123.47347714 145.29453078 123.4757843 143.36048889 C123.47979248 142.15050735 123.48380066 140.94052582 123.4879303 139.69387817 C123.48745521 138.35101316 123.4869191 137.00814817 123.48632812 135.6652832 C123.48935984 134.25262849 123.49288133 132.83997476 123.49685669 131.42732239 C123.50474433 128.38421075 123.50989006 125.34111084 123.51314735 122.2979908 C123.51905631 117.48690831 123.53559491 112.67589983 123.55448914 107.86485291 C123.56082641 106.21805291 123.56715204 104.57125287 123.5734663 102.92445278 C123.57663211 102.09976745 123.57979792 101.27508213 123.58305967 100.42540634 C123.62514949 89.22412833 123.65812248 78.02288505 123.67041016 66.8215332 C123.67878324 59.26633751 123.70124434 51.71132526 123.73976582 44.15622133 C123.75954929 40.15759684 123.7719235 36.15924672 123.76693153 32.16057014 C123.76229427 28.40033534 123.77603908 24.64062108 123.80394363 20.88049126 C123.81087062 19.50022465 123.81096574 18.11990438 123.80374336 16.73963928 C123.7948821 14.85600989 123.81286663 12.97231109 123.83222961 11.08876038 C123.83581214 9.50727754 123.83581214 9.50727754 123.83946705 7.89384556 C124.47129091 4.47495335 125.67753872 3.31715999 128.34448242 1.16113281 C131.04346991 -0.18836093 133.16165658 0.01907179 136.18359375 0 C137.40859085 -0.00960754 138.63358795 -0.01921509 139.89570618 -0.02911377 C141.23930679 -0.03396211 142.58290955 -0.03824085 143.92651367 -0.04199219 C145.3017324 -0.04774453 146.67695111 -0.05350226 148.0521698 -0.05926514 C150.93810398 -0.06977596 153.8240103 -0.07561777 156.70996094 -0.07910156 C160.40215632 -0.08458005 164.09398176 -0.10859342 167.78606129 -0.13707352 C170.62828127 -0.15573005 173.47041279 -0.16090713 176.31268883 -0.16243744 C177.67341823 -0.16545879 179.03414626 -0.17346992 180.39481544 -0.18662262 C182.30219818 -0.20374063 184.20973359 -0.19994974 186.1171875 -0.1953125 C187.20147537 -0.19895813 188.28576324 -0.20260376 189.40290833 -0.20635986 C192.75932075 0.21295882 194.63268705 1.17292096 197.34448242 3.16113281 C198.53198242 5.14941406 198.53198242 5.14941406 199.34448242 7.47363281 C199.66674805 8.36050781 199.98901367 9.24738281 200.32104492 10.16113281 C200.82764648 11.64613281 200.82764648 11.64613281 201.34448242 13.16113281 C204.16867764 21.30711087 207.1594192 29.1913212 210.86401367 36.98144531 C212.7807626 41.09815672 214.48350834 45.28900522 216.16870117 49.50488281 C217.283483 52.17570838 217.283483 52.17570838 218.80151367 54.56738281 C220.2850102 57.06115925 221.40762638 59.58465042 222.51879883 62.26074219 C224.34277562 66.45880113 226.53320286 70.49403579 228.6472168 74.55175781 C231.34448242 79.83619659 231.34448242 79.83619659 231.34448242 83.16113281 C232.00448242 83.16113281 232.66448242 83.16113281 233.34448242 83.16113281 C234.00448242 85.14113281 234.66448242 87.12113281 235.34448242 89.16113281 C236.00448242 89.16113281 236.66448242 89.16113281 237.34448242 89.16113281 C237.61131836 88.45214844 237.8781543 87.74316406 238.15307617 87.01269531 C245.01826645 70.58125628 258.00998957 55.28202075 273.34448242 46.16113281 C274.00448242 46.16113281 274.66448242 46.16113281 275.34448242 46.16113281 C275.34448242 45.50113281 275.34448242 44.84113281 275.34448242 44.16113281 C303.66641667 29.3380945 333.85587128 22.97795612 365.06713867 32.72363281 C378.55456983 37.17036886 392.46099295 43.79691217 403.34448242 53.16113281 C403.34448242 53.82113281 403.34448242 54.48113281 403.34448242 55.16113281 C403.92713867 55.41894531 404.50979492 55.67675781 405.11010742 55.94238281 C407.52477273 57.25947298 409.1618842 58.71201665 411.09448242 60.66113281 C411.70807617 61.26957031 412.32166992 61.87800781 412.95385742 62.50488281 C414.34448242 64.16113281 414.34448242 64.16113281 414.34448242 66.16113281 C415.00448242 66.16113281 415.66448242 66.16113281 416.34448242 66.16113281 C418.01067938 68.33602244 419.53457474 70.49806265 421.03198242 72.78613281 C421.47823975 73.46474365 421.92449707 74.14335449 422.38427734 74.8425293 C439.8768305 101.92848267 446.36342656 132.69083736 439.88793945 164.39648438 C435.85563159 182.9195355 428.21277675 199.31577475 416.34448242 214.16113281 C415.68448242 214.16113281 415.02448242 214.16113281 414.34448242 214.16113281 C414.34448242 214.82113281 414.34448242 215.48113281 414.34448242 216.16113281 C413.68448242 216.16113281 413.02448242 216.16113281 412.34448242 216.16113281 C412.07925781 216.75144287 411.8140332 217.34175293 411.54077148 217.94995117 C402.88047337 233.95736343 380.33641606 242.75088083 364.15698242 248.24316406 C361.56217605 249.0087828 358.99582718 249.62603592 356.34448242 250.16113281 C355.38155273 250.36351562 354.41862305 250.56589844 353.42651367 250.77441406 C325.01484416 255.96263197 300.08952711 247.56767367 274.34448242 236.16113281 C274.14653076 237.66039307 274.14653076 237.66039307 273.94458008 239.18994141 C273.38872707 243.06996808 272.5916099 246.87270414 271.74291992 250.70019531 C271.58577011 251.41064499 271.4286203 252.12109467 271.26670837 252.85307312 C270.75404361 255.16478982 270.23702638 257.47550395 269.71948242 259.78613281 C269.45353775 260.97980972 269.45353775 260.97980972 269.18222046 262.19760132 C266.51460253 274.16589379 263.72355204 286.09785569 260.78613281 298.00317383 C259.40570736 303.62782128 258.09380692 309.2512362 256.93823242 314.92675781 C256.61085083 316.523302 256.61085083 316.523302 256.27685547 318.15209961 C255.87663529 320.13523078 255.48914028 322.12099234 255.1171875 324.10961914 C253.49749566 332.13852554 253.49749566 332.13852554 249.34448242 335.16113281 C246.64549493 336.51062656 244.52730826 336.30319383 241.50537109 336.32226562 C240.28037399 336.33187317 239.05537689 336.34148071 237.79325867 336.35137939 C236.44965806 336.35622774 235.10605529 336.36050648 233.76245117 336.36425781 C232.38723244 336.37001016 231.01201373 336.37576788 229.63679504 336.38153076 C226.75086086 336.39204158 223.86495454 336.39788339 220.97900391 336.40136719 C217.28680852 336.40684567 213.59498308 336.43085904 209.90290356 336.45933914 C207.06068357 336.47799568 204.21855205 336.48317276 201.37627602 336.48470306 C200.01554662 336.48772442 198.65481858 336.49573555 197.2941494 336.50888824 C195.38676666 336.52600626 193.47923126 336.52221536 191.57177734 336.51757812 C190.48748947 336.52122375 189.4032016 336.52486938 188.28605652 336.52862549 C183.97167818 335.98962753 181.37611838 334.19276878 178.34448242 331.16113281 C177.4533389 325.14302073 178.54106206 319.77234617 180.46240234 314.09277344 C181.42652355 310.88846472 182.07544047 307.71028494 182.69995117 304.42285156 C183.7958868 298.78009818 184.99068483 293.16865225 186.28198242 287.56738281 C186.53391609 286.47426033 186.53391609 286.47426033 186.79093933 285.35905457 C187.47979368 282.37957615 188.17246746 279.40099077 188.86499023 276.42236328 C189.38080395 274.20028442 189.89466937 271.97777132 190.40698242 269.75488281 C190.57375488 269.03147705 190.74052734 268.30807129 190.91235352 267.56274414 C191.99756148 262.80786208 192.9765972 258.04249011 193.90698242 253.25488281 C194.92286794 248.06387605 196.15551028 243.00891135 197.59887695 237.92285156 C199.04842343 232.553739 200.13970049 227.10226875 201.28198242 221.66113281 C201.54068115 220.44240479 201.79937988 219.22367676 202.06591797 217.96801758 C203.2490712 212.38725165 204.42020661 206.80400207 205.58666992 201.21972656 C205.76979736 200.34445312 205.9529248 199.46917969 206.14160156 198.56738281 C206.47613124 196.96493655 206.80876321 195.36209252 207.13916016 193.75878906 C207.74914887 190.82600897 208.39610877 188.00625376 209.34448242 185.16113281 C207.62576678 182.35135404 207.62576678 182.35135404 205.21948242 179.41113281 C204.38442797 178.33593729 203.54979039 177.26041787 202.71557617 176.18457031 C201.93311523 175.18683594 201.1506543 174.18910156 200.34448242 173.16113281 C195.34448242 166.53243122 195.34448242 166.53243122 195.34448242 164.16113281 C194.68448242 164.16113281 194.02448242 164.16113281 193.34448242 164.16113281 C193.2697168 164.91394531 193.19495117 165.66675781 193.11791992 166.44238281 C190.7721856 185.39223657 182.18720728 201.39746742 170.34448242 216.16113281 C169.67932617 217.00546875 169.01416992 217.84980469 168.32885742 218.71972656 C153.5493387 236.34796931 130.7370671 248.87082334 107.90307617 251.91113281 C77.53792948 254.04435936 51.77001915 248.49441542 27.15698242 229.91113281 C26.59156738 229.48670898 26.02615234 229.06228516 25.44360352 228.625 C22.74926793 226.52783246 21.44825466 225.47244953 20.34448242 222.16113281 C19.68448242 222.16113281 19.02448242 222.16113281 18.34448242 222.16113281 C18.34448242 221.50113281 18.34448242 220.84113281 18.34448242 220.16113281 C17.68448242 220.16113281 17.02448242 220.16113281 16.34448242 220.16113281 C16.34448242 219.50113281 16.34448242 218.84113281 16.34448242 218.16113281 C15.68448242 218.16113281 15.02448242 218.16113281 14.34448242 218.16113281 C2.5072529 204.29124772 -5.02136711 188.70983439 -9.65551758 171.16113281 C-10.00031158 169.91443314 -10.34510559 168.66773346 -10.7003479 167.383255 C-12.18275785 160.59712375 -11.95142731 153.69947523 -11.94604492 146.79077148 C-11.95203806 145.2491524 -11.9588454 143.7075363 -11.96640015 142.16592407 C-11.98397489 138.00308182 -11.98875155 133.8403219 -11.99003172 129.67744613 C-11.99145727 127.07509435 -11.99573422 124.47276326 -12.00102615 121.87041664 C-12.01948919 112.7883535 -12.02770033 103.70634887 -12.02612305 94.62426758 C-12.02491854 86.16086665 -12.04609078 77.69771946 -12.07761037 69.23438281 C-12.10373818 61.95945225 -12.11449201 54.68460487 -12.11321223 47.40962774 C-12.11270211 43.06790262 -12.11841423 38.72640388 -12.13956833 34.38472557 C-12.15889515 30.30765745 -12.15911375 26.23103328 -12.14453506 22.15394974 C-12.14243981 20.65754996 -12.14719042 19.16112273 -12.15925598 17.66477013 C-12.17464867 15.62387443 -12.16302852 13.58282802 -12.1499939 11.54191589 C-12.15108343 10.39952044 -12.15217297 9.257125 -12.15329552 8.0801115 C-11.54604573 4.51918794 -10.44492993 3.3772442 -7.65551758 1.16113281 C-5.0008371 -0.16620743 -2.97285098 0.01939907 0 0 Z M7.34448242 20.16113281 C7.2539227 38.02543208 7.18035027 55.88953311 7.13723373 73.75399876 C7.1166751 82.05019455 7.08868395 90.3462368 7.04272461 98.64233398 C7.00265025 105.879632 6.97700103 113.11681872 6.96812844 120.35422462 C6.96294824 124.18060629 6.95091587 128.00666977 6.92156219 131.83294868 C6.89406586 135.44698789 6.88610498 139.06058306 6.8920517 142.67471695 C6.89045575 144.60777252 6.86911441 146.54078165 6.84680176 148.47370911 C6.90753779 161.6200575 10.3283161 173.47555326 16.34448242 185.16113281 C16.84334961 186.13308594 17.3422168 187.10503906 17.85620117 188.10644531 C21.49062145 195.05050956 21.49062145 195.05050956 26.34448242 201.16113281 C27.00448242 201.16113281 27.66448242 201.16113281 28.34448242 201.16113281 C28.60229492 201.74378906 28.86010742 202.32644531 29.12573242 202.92675781 C30.44282259 205.34142312 31.89536626 206.97853459 33.84448242 208.91113281 C34.75713867 209.83152344 34.75713867 209.83152344 35.68823242 210.77050781 C37.23932519 212.37547369 37.23932519 212.37547369 39.34448242 212.16113281 C39.34448242 212.82113281 39.34448242 213.48113281 39.34448242 214.16113281 C42.56562399 216.47705304 42.56562399 216.47705304 46.34448242 217.16113281 C46.34448242 217.82113281 46.34448242 218.48113281 46.34448242 219.16113281 C55.13538615 223.8047595 63.509591 228.21464389 73.34448242 230.16113281 C74.27260742 230.36351562 75.20073242 230.56589844 76.15698242 230.77441406 C89.42326268 233.36768959 102.32248057 232.67464685 115.34448242 229.16113281 C116.02269043 228.9784082 116.70089844 228.79568359 117.3996582 228.60742188 C129.10193661 225.30114141 138.94843728 219.90054012 148.34448242 212.16113281 C148.34448242 211.50113281 148.34448242 210.84113281 148.34448242 210.16113281 C148.92198242 209.91363281 149.49948242 209.66613281 150.09448242 209.41113281 C152.67388221 207.97813293 154.40569834 206.37688605 156.34448242 204.16113281 C156.34448242 203.50113281 156.34448242 202.84113281 156.34448242 202.16113281 C157.00448242 202.16113281 157.66448242 202.16113281 158.34448242 202.16113281 C159.88652833 200.25553974 161.28167487 198.370397 162.65698242 196.34863281 C163.05997559 195.75912842 163.46296875 195.16962402 163.87817383 194.56225586 C174.49373433 178.66884218 177.51865187 161.25706559 177.82739258 142.45874023 C177.98151094 137.08796399 178.3485236 133.15709163 182.34448242 129.16113281 C184.36412441 129.08869228 186.38615366 129.07736093 188.40698242 129.09863281 C189.51170898 129.10765625 190.61643555 129.11667969 191.75463867 129.12597656 C192.60928711 129.13757813 193.46393555 129.14917969 194.34448242 129.16113281 C194.60487305 129.70382813 194.86526367 130.24652344 195.13354492 130.80566406 C199.57761942 139.45010574 205.16910337 147.5138581 210.71948242 155.47363281 C211.2433252 156.23313232 211.76716797 156.99263184 212.30688477 157.77514648 C212.80140137 158.47615479 213.29591797 159.17716309 213.80541992 159.89941406 C214.2467627 160.52887939 214.68810547 161.15834473 215.14282227 161.80688477 C215.53937012 162.25378662 215.93591797 162.70068848 216.34448242 163.16113281 C217.00448242 163.16113281 217.66448242 163.16113281 218.34448242 163.16113281 C218.71379883 164.00611328 218.71379883 164.00611328 219.09057617 164.86816406 C221.03816708 168.4296465 223.85260144 171.23610699 226.56713867 174.23535156 C231.06230647 181.63508932 228.97981598 189.68261059 227.09838867 197.65722656 C226.85226837 198.75111191 226.60614807 199.84499725 226.35256958 200.97203064 C225.55114973 204.51752647 224.72936922 208.0579474 223.90698242 211.59863281 C223.34763133 214.05425983 222.7894513 216.51015389 222.23242188 218.96630859 C218.92746206 233.49262144 215.54593212 248.00231065 212.08862305 262.49316406 C209.41839132 273.71604077 206.93696007 284.97600851 204.51318359 296.25439453 C204.24223877 297.5113916 203.97129395 298.76838867 203.69213867 300.06347656 C203.45503174 301.17198975 203.2179248 302.28050293 202.97363281 303.42260742 C202.34448242 306.16113281 202.34448242 306.16113281 201.34448242 309.16113281 C201.34448242 311.47113281 201.34448242 313.78113281 201.34448242 316.16113281 C212.89448242 316.16113281 224.44448242 316.16113281 236.34448242 316.16113281 C239.52773328 304.41312991 239.52773328 304.41312991 242.03198242 292.59863281 C244.26699343 280.85468758 247.11979258 269.25503887 249.91210938 257.63427734 C251.7335142 250.04066321 253.53024557 242.44758159 255.15698242 234.80957031 C255.55844482 232.93507202 255.55844482 232.93507202 255.96801758 231.02270508 C256.45657043 228.7153325 256.93592735 226.40598698 257.40454102 224.09448242 C257.72672607 222.57479858 257.72672607 222.57479858 258.05541992 221.02441406 C258.23379395 220.15083252 258.41216797 219.27725098 258.59594727 218.37719727 C259.44498939 215.86357842 260.25544852 214.77487561 262.34448242 213.16113281 C267.87946448 211.45032018 270.80995378 212.07792422 275.96948242 214.66113281 C278.10044885 215.81686556 280.22511437 216.98426613 282.34448242 218.16113281 C308.06357748 231.69412298 333.79065224 235.15971488 361.90698242 227.53613281 C371.00423678 224.59188867 379.41998689 219.44412983 387.34448242 214.16113281 C387.34448242 213.50113281 387.34448242 212.84113281 387.34448242 212.16113281 C387.90135742 211.91363281 388.45823242 211.66613281 389.03198242 211.41113281 C391.76859156 209.93188463 394.02099112 208.22645842 396.34448242 206.16113281 C396.34448242 205.50113281 396.34448242 204.84113281 396.34448242 204.16113281 C397.00448242 204.16113281 397.66448242 204.16113281 398.34448242 204.16113281 C401.36966152 201.10554858 401.36966152 201.10554858 402.34448242 197.16113281 C403.00448242 197.16113281 403.66448242 197.16113281 404.34448242 197.16113281 C419.6482696 177.83418509 424.36139824 152.00131063 422.14233398 127.97216797 C420.4015194 114.02922851 414.89218258 101.47428576 408.34448242 89.16113281 C407.68448242 89.16113281 407.02448242 89.16113281 406.34448242 89.16113281 C406.34448242 88.17113281 406.34448242 87.18113281 406.34448242 86.16113281 C405.68448242 86.16113281 405.02448242 86.16113281 404.34448242 86.16113281 C404.09698242 85.43925781 403.84948242 84.71738281 403.59448242 83.97363281 C402.2217865 80.885067 400.62094946 78.65101864 398.34448242 76.16113281 C397.68448242 76.16113281 397.02448242 76.16113281 396.34448242 76.16113281 C396.01448242 75.17113281 395.68448242 74.18113281 395.34448242 73.16113281 C394.68448242 73.16113281 394.02448242 73.16113281 393.34448242 73.16113281 C393.34448242 72.50113281 393.34448242 71.84113281 393.34448242 71.16113281 C376.10835915 54.79145739 353.2468573 47.43399439 329.86206055 47.69433594 C305.22308516 48.49653514 283.67536023 59.40412272 266.41870117 76.78613281 C265.13926774 78.13299596 265.13926774 78.13299596 265.34448242 80.16113281 C264.68448242 80.16113281 264.02448242 80.16113281 263.34448242 80.16113281 C261.81959011 82.02455122 260.44857575 83.86532231 259.09448242 85.84863281 C258.69334229 86.43370605 258.29220215 87.0187793 257.87890625 87.62158203 C252.3289916 95.93588592 244.34448242 108.9086072 244.34448242 119.16113281 C239.87163712 120.65208125 235.98307003 121.30655092 231.34448242 120.16113281 C228.12671468 117.39628616 226.36385533 113.851117 224.34448242 110.16113281 C223.57936244 108.8254606 222.81231304 107.49089243 222.04370117 106.15722656 C203.0150898 72.77659047 203.0150898 72.77659047 198.1796875 59.32543945 C197.2427596 56.89753364 196.15455471 54.57310187 195.04370117 52.21972656 C192.17499334 45.95365873 189.86628241 39.5379173 187.59448242 33.03613281 C186.81051843 30.80348456 186.02419449 28.57166306 185.23510742 26.34082031 C184.72512207 24.88264893 184.72512207 24.88264893 184.20483398 23.39501953 C183.54188675 21.22329595 183.54188675 21.22329595 182.34448242 20.16113281 C179.46014422 20.07248074 176.59986084 20.04591985 173.71557617 20.06347656 C172.85134537 20.06489151 171.98711456 20.06630646 171.09669495 20.06776428 C168.3250895 20.07338042 165.55356362 20.08593562 162.78198242 20.09863281 C160.90763463 20.10364573 159.03328557 20.108209 157.15893555 20.11230469 C152.55408699 20.1233551 147.94929821 20.14063052 143.34448242 20.16113281 C143.34089989 21.17271013 143.34089989 21.17271013 143.33724499 22.20472336 C143.27796135 38.65743246 143.20232654 55.10997837 143.10876751 71.5625267 C143.06391123 79.51904724 143.02447347 87.47552404 142.99804688 95.43212891 C142.97498406 102.37173207 142.94149455 109.3111956 142.89578086 116.25068784 C142.87195959 119.92091733 142.85315853 123.59100951 142.84686852 127.26131439 C142.83962924 131.3710223 142.8090989 135.48025585 142.77685547 139.58984375 C142.77829056 140.79034866 142.77972565 141.99085358 142.78120422 143.22773743 C142.62613424 157.27240693 139.24408777 168.28383738 130.34448242 179.16113281 C130.34448242 179.82113281 130.34448242 180.48113281 130.34448242 181.16113281 C129.75538086 181.433125 129.1662793 181.70511719 128.55932617 181.98535156 C126.39482197 183.13440935 124.77356416 184.39805491 122.90698242 185.97363281 C111.46028437 194.78543055 97.27675161 196.32192046 83.34448242 195.16113281 C78.83859374 194.34321492 74.61690385 192.78036102 70.34448242 191.16113281 C69.01692367 190.80549727 67.68544849 190.4622954 66.34448242 190.16113281 C66.34448242 189.50113281 66.34448242 188.84113281 66.34448242 188.16113281 C63.3826097 185.98909282 60.83762251 184.32551284 57.34448242 183.16113281 C57.34448242 182.50113281 57.34448242 181.84113281 57.34448242 181.16113281 C56.68448242 181.16113281 56.02448242 181.16113281 55.34448242 181.16113281 C55.34448242 180.50113281 55.34448242 179.84113281 55.34448242 179.16113281 C54.68448242 179.16113281 54.02448242 179.16113281 53.34448242 179.16113281 C53.07635742 178.62101563 52.80823242 178.08089844 52.53198242 177.52441406 C51.66916775 175.80729934 50.79227619 174.09723548 49.90698242 172.39160156 C49.39135742 171.38742187 48.87573242 170.38324219 48.34448242 169.34863281 C47.82885742 168.3521875 47.31323242 167.35574219 46.78198242 166.32910156 C44.16931975 160.5713042 43.09183317 155.27527597 42.93261719 148.97119141 C42.91337378 148.27850788 42.89413036 147.58582436 42.87430382 146.87215042 C42.81380984 144.55974539 42.76794582 142.24733398 42.72338867 139.93457031 C42.68532412 138.26321281 42.6472009 136.59185665 42.60902405 134.92050171 C42.15109951 113.32470992 42.23149478 91.72212208 42.27581787 70.12280273 C42.28627554 64.46240632 42.29066217 58.80200497 42.2956543 53.14160156 C42.30619722 42.14809759 42.32369655 31.15462219 42.34448242 20.16113281 C30.79448242 20.16113281 19.24448242 20.16113281 7.34448242 20.16113281 Z " fill="#7B8291" transform="translate(35.655517578125,91.8388671875)"/>
<path d="M0 0 C2.765625 2.04296875 2.765625 2.04296875 4.75 3.8125 C4.75 4.4725 4.75 5.1325 4.75 5.8125 C5.41 5.8125 6.07 5.8125 6.75 5.8125 C16.63653393 17.69582157 22.78660886 33.07236705 22.12890625 48.6875 C20.70350108 60.44341895 17.40327143 69.93091707 10.75 79.8125 C10.09 80.8025 9.43 81.7925 8.75 82.8125 C8.09 82.8125 7.43 82.8125 6.75 82.8125 C6.5334375 83.3796875 6.316875 83.946875 6.09375 84.53125 C1.55491017 92.23672226 -8.98098996 97.32216586 -17.25 99.8125 C-17.95253906 100.03550781 -18.65507812 100.25851562 -19.37890625 100.48828125 C-39.19176704 105.8519839 -59.08437317 97.9701693 -76.27734375 88.55859375 C-79.36227031 86.7465541 -82.35754502 84.92041429 -85.25 82.8125 C-85.25 82.1525 -85.25 81.4925 -85.25 80.8125 C-85.971875 80.585625 -86.69375 80.35875 -87.4375 80.125 C-91.05132627 78.43854774 -92.88311863 77.05850873 -95.25 73.8125 C-96.59023201 65.72154312 -94.00893603 57.6814198 -91.9375 49.9375 C-91.62876953 48.74769531 -91.32003906 47.55789062 -91.00195312 46.33203125 C-90.3884921 43.96859191 -89.76952179 41.60657503 -89.14477539 39.24609375 C-88.03723751 34.99604935 -87.01097216 30.72814622 -86.00244141 26.45361328 C-82.17773532 13.02867153 -73.13098038 3.19454419 -61.39453125 -3.91796875 C-41.10615051 -14.77238645 -18.79408816 -13.25933749 0 0 Z M-58.25 18.8125 C-59.49236977 20.923825 -59.49236977 20.923825 -60.25 22.8125 C-60.91 22.8125 -61.57 22.8125 -62.25 22.8125 C-66.97766559 31.2740625 -69.73975874 39.34010686 -71.6875 48.8125 C-72.0887207 50.61267578 -72.0887207 50.61267578 -72.49804688 52.44921875 C-74.3096603 59.1754295 -74.3096603 59.1754295 -73.25 65.8125 C-71.74211354 67.27566445 -71.74211354 67.27566445 -69.77734375 68.43359375 C-69.05047363 68.89209717 -68.32360352 69.35060059 -67.57470703 69.82299805 C-66.39303955 70.52936401 -66.39303955 70.52936401 -65.1875 71.25 C-63.97489502 71.97860229 -63.97489502 71.97860229 -62.73779297 72.72192383 C-52.05311556 78.92003861 -39.82344917 83.90807486 -27.25 81.8125 C-20.50094738 79.87329257 -14.47501098 77.62374399 -9.25 72.8125 C-9.25 72.1525 -9.25 71.4925 -9.25 70.8125 C-8.59 70.8125 -7.93 70.8125 -7.25 70.8125 C-7.25 70.1525 -7.25 69.4925 -7.25 68.8125 C-6.59 68.8125 -5.93 68.8125 -5.25 68.8125 C-4.26246936 67.08809635 -3.28531194 65.35774974 -2.3125 63.625 C-1.76722656 62.66207031 -1.22195313 61.69914062 -0.66015625 60.70703125 C3.28947521 52.59989299 2.88622659 41.8588224 0.5 33.3125 C-0.89045838 29.31905081 -2.575598 26.09079923 -5.25 22.8125 C-5.91 22.8125 -6.57 22.8125 -7.25 22.8125 C-7.4975 22.22597656 -7.745 21.63945312 -8 21.03515625 C-11.11394525 15.49817234 -17.22359141 11.85470576 -23.125 9.875 C-36.21343762 6.61302096 -48.60625925 9.14797533 -58.25 18.8125 Z " fill="#7C8391" transform="translate(402.25,186.1875)"/>
<path d="M0 0 C1.485 0.99 1.485 0.99 3 2 C3.37638092 4.46147728 3.37638092 4.46147728 3.37854004 7.6265564 C3.38674271 8.82360199 3.39494537 10.02064758 3.40339661 11.25396729 C3.39743725 12.5877697 3.39121813 13.92157097 3.38476562 15.25537109 C3.38886925 16.65490156 3.39432888 18.05442862 3.40104675 19.45394897 C3.41279595 22.47365057 3.41524725 25.49316928 3.41069031 28.51288986 C3.40388688 33.29674357 3.41974177 38.08035667 3.43908691 42.86416626 C3.47700203 53.03443109 3.48972973 63.20467537 3.5 73.375 C3.51108054 84.32057317 3.52662367 95.26603543 3.57071257 106.21153319 C3.58897542 110.95672858 3.59299387 115.70164954 3.58577728 120.44687152 C3.5842433 123.41713352 3.59511641 126.38726145 3.60915565 129.35748672 C3.61499591 131.36856938 3.60611293 133.37967842 3.59660339 135.39074707 C3.64981039 143.33835007 4.68624532 150.39155709 7 158 C6.34 158 5.68 158 5 158 C1.93347622 153.40021434 1.87455694 149.2737612 1.84851074 143.83822632 C1.84016708 142.59880783 1.83182343 141.35938934 1.82322693 140.08241272 C1.81891808 138.71688868 1.81469424 137.35136438 1.81054688 135.98583984 C1.8025999 134.54171001 1.79421158 133.09758255 1.78541565 131.65345764 C1.76739048 128.54872707 1.75236378 125.44400162 1.73963928 122.33924484 C1.71938969 117.43166499 1.69174278 112.52414389 1.66296387 107.61660767 C1.59782321 96.31638959 1.54232067 85.01612802 1.48697662 73.71585846 C1.43613547 63.3528002 1.38326874 52.98976336 1.32245111 42.62675822 C1.29408991 37.7461824 1.27049898 32.86561359 1.25052643 27.98499656 C1.23715165 24.95293364 1.21973914 21.92090375 1.20121574 18.88886833 C1.1934524 17.48075762 1.18738601 16.07263639 1.18312263 14.66451073 C1.17708476 12.74558981 1.16446608 10.82669293 1.15148926 8.9078064 C1.14633553 7.83303732 1.14118179 6.75826824 1.13587189 5.6509304 C1.11292166 2.89334374 1.11292166 2.89334374 0 0 Z " fill="#9497A2" transform="translate(94,95)"/>
<path d="M0 0 C13.86 0 27.72 0 42 0 C42 1.65 42 3.3 42 5 C42.66 5 43.32 5 44 5 C44.55786268 6.59860649 45.09579568 8.20417905 45.625 9.8125 C45.92664063 10.70582031 46.22828125 11.59914063 46.5390625 12.51953125 C47 15 47 15 45 18 C43.35 13.05 41.7 8.1 40 3 C20.695 2.505 20.695 2.505 1 2 C1 10.91 1 19.82 1 29 C0.67 29 0.34 29 0 29 C0 19.43 0 9.86 0 0 Z " fill="#9BA0AA" transform="translate(178,110)"/>
<path d="M0 0 C0.33 0 0.66 0 1 0 C1.20190089 6.35987804 0.6277833 11.85221129 -1 18 C-1.66 18 -2.32 18 -3 18 C-3 20.64 -3 23.28 -3 26 C-15.87 26 -28.74 26 -42 26 C-41.67 24.68 -41.34 23.36 -41 22 C-40.67 22.66 -40.34 23.32 -40 24 C-28.45 24 -16.9 24 -5 24 C-4.34 20.04 -3.68 16.08 -3 12 C-2.49353482 9.74181582 -1.96134517 7.48877246 -1.375 5.25 C-1.11460937 4.24453125 -0.85421875 3.2390625 -0.5859375 2.203125 C-0.39257812 1.47609375 -0.19921875 0.7490625 0 0 Z " fill="#A4AAB2" transform="translate(277,384)"/>
<path d="M0 0 C0.55945313 0.18175781 1.11890625 0.36351562 1.6953125 0.55078125 C9.03565721 2.85201472 16.46496782 4.47275294 24 6 C25.23169922 6.28230469 25.23169922 6.28230469 26.48828125 6.5703125 C37.63083228 8.47650319 48.17613894 6.44328092 59 4 C60.99755299 3.65230306 62.99687926 3.31403567 65 3 C65 3.99 65 4.98 65 6 C64.14535156 6.13277344 63.29070312 6.26554687 62.41015625 6.40234375 C61.30542969 6.57894531 60.20070312 6.75554687 59.0625 6.9375 C57.96035156 7.11152344 56.85820312 7.28554688 55.72265625 7.46484375 C53.09573071 7.71845136 53.09573071 7.71845136 52 9 C49.85441173 9.08775605 47.70595579 9.10695219 45.55859375 9.09765625 C44.25341797 9.09443359 42.94824219 9.09121094 41.60351562 9.08789062 C40.2148431 9.07953401 38.82617123 9.07106905 37.4375 9.0625 C36.04492344 9.05748666 34.65234519 9.05292347 33.25976562 9.04882812 C29.8398013 9.03699434 26.41992156 9.0205088 23 9 C23 8.34 23 7.68 23 7 C22.32195312 7.03480469 21.64390625 7.06960938 20.9453125 7.10546875 C14.41480478 7.29541427 7.90689996 7.09794362 2 4 C0.72265625 1.890625 0.72265625 1.890625 0 0 Z " fill="#B1B4BC" transform="translate(92,316)"/>
<path d="M0 0 C14.85 0 29.7 0 45 0 C45 0.33 45 0.66 45 1 C29.89232281 3.98950503 15.13014555 3.7243992 0 1 C0 0.67 0 0.34 0 0 Z " fill="#A5A9B1" transform="translate(347,341)"/>
<path d="M0 0 C0.33 0.66 0.66 1.32 1 2 C2.32 2 3.64 2 5 2 C5 2.66 5 3.32 5 4 C5.804375 3.979375 6.60875 3.95875 7.4375 3.9375 C10 4 10 4 11 5 C12.92667507 5.08748207 14.85651861 5.10697334 16.78515625 5.09765625 C17.95498047 5.09443359 19.12480469 5.09121094 20.33007812 5.08789062 C22.17762695 5.07532227 22.17762695 5.07532227 24.0625 5.0625 C25.29806641 5.05798828 26.53363281 5.05347656 27.80664062 5.04882812 C30.87114117 5.03699608 33.93554721 5.02051173 37 5 C27.18033355 10.07913782 14.02302556 9.30542685 3.5625 6.1875 C-0.15147159 4.92368437 -2.97164566 3.49857131 -6 1 C-4.02 0.67 -2.04 0.34 0 0 Z " fill="#A6AAB1" transform="translate(108,280)"/>
<path d="M0 0 C1.05743408 0.18175781 1.05743408 0.18175781 2.13623047 0.3671875 C5.38110365 0.91995869 8.62797067 1.46004456 11.875 2 C12.98359375 2.19078125 14.0921875 2.3815625 15.234375 2.578125 C24.53432465 4.10988141 33.26012782 4.23449978 42.625 3.5 C43.83414063 3.4071875 45.04328125 3.314375 46.2890625 3.21875 C47.63097656 3.11046875 47.63097656 3.11046875 49 3 C49 3.33 49 3.66 49 4 C47.02 4 45.04 4 43 4 C43 4.66 43 5.32 43 6 C38.8882744 6.02465746 34.77657722 6.04283959 30.66479492 6.05493164 C29.26504772 6.0599708 27.8653058 6.06680216 26.46557617 6.07543945 C24.45754223 6.0875232 22.44947043 6.09269807 20.44140625 6.09765625 C19.23170166 6.10289307 18.02199707 6.10812988 16.77563477 6.11352539 C14 6 14 6 13 5 C10.67182036 4.63239269 8.3381615 4.29758419 6 4 C6 3.34 6 2.68 6 2 C4.02 2 2.04 2 0 2 C0 1.34 0 0.68 0 0 Z " fill="#AEB2BB" transform="translate(339,319)"/>
<path d="M0 0 C2.25541823 4.51083645 -0.06964479 11.21299792 -1 16 C-2.5 19.5 -2.5 19.5 -4 23 C-4.56269512 26.62441857 -4.99919763 30.24221033 -5.375 33.890625 C-6.03948587 37.19644223 -6.59723816 37.85261191 -9 40 C-8.3905618 32.34816477 -6.76088003 25.01182942 -4.98876953 17.55859375 C-4.49480119 15.47810371 -4.01055197 13.39551262 -3.52734375 11.3125 C-1.13867434 1.13867434 -1.13867434 1.13867434 0 0 Z " fill="#B0B4BC" transform="translate(295,307)"/>
<path d="M0 0 C0 0.66 0 1.32 0 2 C-2.64 1.67 -5.28 1.34 -8 1 C-8.33 1.66 -8.66 2.32 -9 3 C-9 2.01 -9 1.02 -9 0 C-14.30990503 -2.14137154 -19.23295407 -2.42107063 -24.875 -2.625 C-25.75414062 -2.66367188 -26.63328125 -2.70234375 -27.5390625 -2.7421875 C-29.69238793 -2.83581034 -31.84616414 -2.91896459 -34 -3 C-34 -3.33 -34 -3.66 -34 -4 C-22.63345511 -6.33159895 -10.42165481 -5.2108274 0 0 Z " fill="#A7ABB3" transform="translate(391,180)"/>
<path d="M0 0 C0.99 0.33 1.98 0.66 3 1 C2.34 1 1.68 1 1 1 C0.86408447 2.01457275 0.72816895 3.02914551 0.58813477 4.07446289 C0.04579356 7.69434841 -0.63555308 11.23223445 -1.41015625 14.80859375 C-1.67763672 16.04931641 -1.94511719 17.29003906 -2.22070312 18.56835938 C-2.49849609 19.84517578 -2.77628906 21.12199219 -3.0625 22.4375 C-3.34722807 23.75450913 -3.63173524 25.07156604 -3.91601562 26.38867188 C-4.60850962 29.59292374 -5.30323765 32.79667407 -6 36 C-6.33 36 -6.66 36 -7 36 C-6.45116622 23.5471508 -4.8619291 11.57602166 0 0 Z " fill="#A8ABB4" transform="translate(309,327)"/>
<path d="M0 0 C5.95038942 0.55133552 11.08743113 1.82314277 16.6875 3.875 C17.42033203 4.13152344 18.15316406 4.38804688 18.90820312 4.65234375 C22.89135545 6.08182493 26.44390483 7.65732586 30 10 C26.30962722 11.37095624 24.29116165 10.60010967 20.75 9.0625 C19.41195313 8.49208984 19.41195313 8.49208984 18.046875 7.91015625 C17.03367187 7.45962891 17.03367187 7.45962891 16 7 C16 6.34 16 5.68 16 5 C15.34 5.061875 14.68 5.12375 14 5.1875 C8.77290331 4.86080646 4.32614261 2.88409507 0 0 Z " fill="#A9ACB5" transform="translate(390,123)"/>
<path d="M0 0 C0.33 0 0.66 0 1 0 C1.24794402 6.5705166 0.32388229 12.56971459 -1 19 C-1.66 19 -2.32 19 -3 19 C-2.95875 20.175625 -2.9175 21.35125 -2.875 22.5625 C-2.86016365 26.72409674 -3.68829222 30.06487667 -5 34 C-5.66 34 -6.32 34 -7 34 C-5.56203145 25.30080019 -4.09732543 16.72792138 -1.62890625 8.25 C-0.86779643 5.52702325 -0.37844783 2.80051395 0 0 Z " fill="#A8ADB6" transform="translate(235,321)"/>
<path d="M0 0 C0.66 0 1.32 0 2 0 C1.67 1.32 1.34 2.64 1 4 C0.34 4 -0.32 4 -1 4 C-1.2475 4.7425 -1.495 5.485 -1.75 6.25 C-3.17476681 9.38448698 -4.25909205 10.90825446 -7 13 C-9.65978169 13.90188 -12.23401669 14.44680334 -15 15 C-13.37660195 13.29115995 -11.70680947 11.62553283 -10 10 C-9.34 10 -8.68 10 -8 10 C-8 9.34 -8 8.68 -8 8 C-6.50390625 6.5625 -6.50390625 6.5625 -4.5625 5 C-1.84811762 2.85474956 -1.84811762 2.85474956 0 0 Z " fill="#9A9DA9" transform="translate(192,294)"/>
<path d="M0 0 C0.66 0.33 1.32 0.66 2 1 C-3.75 6 -3.75 6 -6 6 C-6.33 6.99 -6.66 7.98 -7 9 C-7.66 8.67 -8.32 8.34 -9 8 C-9.33 8.66 -9.66 9.32 -10 10 C-10.33 9.34 -10.66 8.68 -11 8 C-13.02463255 7.34786708 -13.02463255 7.34786708 -15 7 C-13.06374902 6.01836578 -11.12595461 5.03977546 -9.1875 4.0625 C-8.10855469 3.51722656 -7.02960938 2.97195312 -5.91796875 2.41015625 C-3 1 -3 1 0 0 Z " fill="#9C9FAD" transform="translate(332,126)"/>
<path d="M0 0 C0.66 0.33 1.32 0.66 2 1 C1.59060025 7.76215448 0.43046191 13.67162748 -2 20 C-2.66 20 -3.32 20 -4 20 C-2.9413873 13.24289769 -1.77874156 6.60675438 0 0 Z " fill="#A5AAB1" transform="translate(245,278)"/>
<path d="M0 0 C-0.33 0.99 -0.66 1.98 -1 3 C-1.99 3 -2.98 3 -4 3 C-4 3.66 -4 4.32 -4 5 C-7.26594686 8.07932132 -9.60954191 9.32454491 -14 10 C-16.23408113 10.99083967 -16.23408113 10.99083967 -18 12 C-18 11.01 -18 10.02 -18 9 C-17.18015625 8.60167969 -16.3603125 8.20335937 -15.515625 7.79296875 C-13.89914062 6.99826172 -13.89914062 6.99826172 -12.25 6.1875 C-11.18265625 5.66542969 -10.1153125 5.14335937 -9.015625 4.60546875 C-6.03887543 3.11982421 -6.03887543 3.11982421 -3.734375 1.30078125 C-2 0 -2 0 0 0 Z " fill="#AAAFB7" transform="translate(423,306)"/>
<path d="M0 0 C0.69140625 1.74609375 0.69140625 1.74609375 1 4 C-2.09386288 9.14984844 -6.41016254 12.81860002 -12 15 C-12.66 14.34 -13.32 13.68 -14 13 C-11.32521756 11.3372974 -9.0004856 10.00016187 -6 9 C-6 8.34 -6 7.68 -6 7 C-5.34 7 -4.68 7 -4 7 C-4 6.34 -4 5.68 -4 5 C-3.34 5 -2.68 5 -2 5 C-1.34 3.35 -0.68 1.7 0 0 Z " fill="#A2A8AF" transform="translate(399,250)"/>
<path d="M0 0 C0.33 0.66 0.66 1.32 1 2 C2.32 2 3.64 2 5 2 C5 2.66 5 3.32 5 4 C6.65 4 8.3 4 10 4 C10.33 4.66 10.66 5.32 11 6 C4.29873464 6.48736475 -0.06561592 5.07708804 -6 2 C-6 1.67 -6 1.34 -6 1 C-4.02 0.67 -2.04 0.34 0 0 Z " fill="#9C9FA9" transform="translate(108,280)"/>
<path d="M0 0 C1.37178473 2.24891103 2.04524238 3.52282099 1.79296875 6.18359375 C1.59316406 6.92738281 1.39335937 7.67117188 1.1875 8.4375 C0.98640625 9.22382813 0.7853125 10.01015625 0.578125 10.8203125 C0.38734375 11.53960937 0.1965625 12.25890625 0 13 C-0.185625 13.928125 -0.37125 14.85625 -0.5625 15.8125 C-0.97896008 17.89480038 -1.46715301 19.94473302 -2 22 C-2.66 22 -3.32 22 -4 22 C-3.3622098 14.47407567 -1.80110167 7.32901118 0 0 Z " fill="#AEB2B9" transform="translate(240,299)"/>
<path d="M0 0 C-0.33 0.99 -0.66 1.98 -1 3 C-2.98 3 -4.96 3 -7 3 C-7 3.66 -7 4.32 -7 5 C-12.94 5 -18.88 5 -25 5 C-25 4.34 -25 3.68 -25 3 C-24.01 3.03480469 -23.02 3.06960938 -22 3.10546875 C-14.27975034 3.29307639 -7.02672952 0 0 0 Z " fill="#A8ABB3" transform="translate(385,264)"/>
<path d="M0 0 C3.92488093 3.70060202 7.02215543 7.4906925 10 12 C10 12.66 10 13.32 10 14 C10.66 14 11.32 14 12 14 C12 14.66 12 15.32 12 16 C9.5625 15.3125 9.5625 15.3125 7 14 C6.1875 11.375 6.1875 11.375 6 9 C5.34 9 4.68 9 4 9 C1.98217268 6.09432866 0.64505596 3.48330216 0 0 Z " fill="#B5B8BE" transform="translate(242,241)"/>
<path d="M0 0 C0.33 0.66 0.66 1.32 1 2 C1.66 2 2.32 2 3 2 C4.69140625 4.046875 4.69140625 4.046875 6.5625 6.75 C7.18253906 7.63171875 7.80257813 8.5134375 8.44140625 9.421875 C9.82663759 11.71323511 10.55473941 13.38943105 11 16 C8 15 8 15 6.875 13.1875 C6 11 6 11 5.625 8.875 C5.41875 8.25625 5.2125 7.6375 5 7 C4.34 6.690625 3.68 6.38125 3 6.0625 C2.34 5.711875 1.68 5.36125 1 5 C0.25 2.375 0.25 2.375 0 0 Z " fill="#A9ACB4" transform="translate(406,190)"/>
<path d="M0 0 C0.98622374 3.06825164 1.12101219 4.96392532 0 8 C-1.62890625 9.484375 -1.62890625 9.484375 -3.5625 10.75 C-4.20316406 11.17796875 -4.84382812 11.6059375 -5.50390625 12.046875 C-6.24447266 12.51867187 -6.24447266 12.51867187 -7 13 C-7.66 12.67 -8.32 12.34 -9 12 C-8.51789063 11.46890625 -8.03578125 10.9378125 -7.5390625 10.390625 C-6.90742188 9.68421875 -6.27578125 8.9778125 -5.625 8.25 C-4.68527344 7.20585937 -4.68527344 7.20585937 -3.7265625 6.140625 C-2.12494817 4.15491312 -1.03479932 2.32045907 0 0 Z " fill="#A2A9B2" transform="translate(156,250)"/>
<path d="M0 0 C2.04119788 1.61594832 4.04072937 3.2856382 6 5 C6 5.66 6 6.32 6 7 C6.66 7 7.32 7 8 7 C7.67 7.66 7.34 8.32 7 9 C2.545 8.01 2.545 8.01 -2 7 C-2 5 -2 5 0 3 C0 2.01 0 1.02 0 0 Z " fill="#9B9FA8" transform="translate(444,151)"/>
<path d="M0 0 C0.680625 0.06703125 1.36125 0.1340625 2.0625 0.203125 C4 0.75 4 0.75 7 3.75 C1.72 3.75 -3.56 3.75 -9 3.75 C-6.38227616 -0.17658576 -4.44308828 -0.5048964 0 0 Z " fill="#A7AFB6" transform="translate(305,303.25)"/>
<path d="M0 0 C4.67105792 1.55701931 8.08705685 4.08447373 12 7 C8.66666667 7 5.33333333 7 2 7 C2 5.35 2 3.7 2 2 C1.34 2 0.68 2 0 2 C0 1.34 0 0.68 0 0 Z " fill="#A3A7AE" transform="translate(424,136)"/>
<path d="M0 0 C3.95819611 -0.08678303 7.91614934 -0.14031733 11.875 -0.1875 C13.00292969 -0.21263672 14.13085938 -0.23777344 15.29296875 -0.26367188 C16.36933594 -0.27333984 17.44570313 -0.28300781 18.5546875 -0.29296875 C20.04718018 -0.31653442 20.04718018 -0.31653442 21.56982422 -0.34057617 C22.37178223 -0.22818604 23.17374023 -0.1157959 24 0 C24.66 0.99 25.32 1.98 26 3 C25.04996094 2.84660156 24.09992188 2.69320312 23.12109375 2.53515625 C18.45038433 1.86791205 13.77201861 1.65596436 9.0625 1.4375 C7.75055664 1.37272461 7.75055664 1.37272461 6.41210938 1.30664062 C4.27488005 1.20153099 2.13745762 1.10036015 0 1 C0 0.67 0 0.34 0 0 Z " fill="#A3A7B0" transform="translate(361,139)"/>
<path d="M0 0 C1.44715727 3.87186448 0.5441918 6.8232328 -0.4375 10.75 C-0.72496094 11.92046875 -1.01242187 13.0909375 -1.30859375 14.296875 C-1.53675781 15.18890625 -1.76492188 16.0809375 -2 17 C-3 15 -4 13 -5 11 C-4.67 10.01 -4.34 9.02 -4 8 C-3.34 8 -2.68 8 -2 8 C-2.04125 7.236875 -2.0825 6.47375 -2.125 5.6875 C-2 3 -2 3 0 0 Z " fill="#A2A4AF" transform="translate(301,363)"/>
<path d="M0 0 C2.38564077 0.57584432 4.66682784 1.22227595 7 2 C7.33 2.66 7.66 3.32 8 4 C10.3140622 4.73075648 12.64828869 5.40138258 15 6 C15 6.99 15 7.98 15 9 C9.26800429 7.53025751 4.66416601 4.55513098 0 1 C0 0.67 0 0.34 0 0 Z " fill="#A3AAB1" transform="translate(69,325)"/>
<path d="M0 0 C1.98 0 3.96 0 6 0 C5.01 2.97 4.02 5.94 3 9 C0.9375 6.75 0.9375 6.75 -1 4 C-0.75 1.6875 -0.75 1.6875 0 0 Z " fill="#8E93A1" transform="translate(218,276)"/>
<path d="M0 0 C1.98 0.495 1.98 0.495 4 1 C4 1.66 4 2.32 4 3 C3.34 3 2.68 3 2 3 C1.34 7.29 0.68 11.58 0 16 C-0.33 16 -0.66 16 -1 16 C-1.09688221 10.55306686 -1.12862175 5.36095333 0 0 Z " fill="#A0A4AE" transform="translate(227,253)"/>
<path d="M0 0 C-1.95585325 1.00484204 -3.91476237 2.00373805 -5.875 3 C-6.96554687 3.556875 -8.05609375 4.11375 -9.1796875 4.6875 C-12 6 -12 6 -14 6 C-14 5.34 -14 4.68 -14 4 C-12.68 4 -11.36 4 -10 4 C-10 2.68 -10 1.36 -10 0 C-6.26432828 -0.76411467 -3.65188082 -1.07174763 0 0 Z " fill="#9FA4AB" transform="translate(425,329)"/>
<path d="M0 0 C0.66 0 1.32 0 2 0 C2 0.99 2 1.98 2 3 C2.66 3 3.32 3 4 3 C4.55786268 4.59860649 5.09579568 6.20417905 5.625 7.8125 C5.92664063 8.70582031 6.22828125 9.59914063 6.5390625 10.51953125 C7 13 7 13 5 16 C3.35 10.72 1.7 5.44 0 0 Z " fill="#A5AAB5" transform="translate(218,112)"/>
<path d="M0 0 C1.65 0 3.3 0 5 0 C4.21718695 1.33855056 3.42348123 2.67073644 2.625 4 C2.18414062 4.7425 1.74328125 5.485 1.2890625 6.25 C0.86367188 6.8275 0.43828125 7.405 0 8 C-0.66 8 -1.32 8 -2 8 C-2 8.66 -2 9.32 -2 10 C-2.66 10 -3.32 10 -4 10 C-4 9.01 -4 8.02 -4 7 C-3.34 7 -2.68 7 -2 7 C-1.34 4.69 -0.68 2.38 0 0 Z " fill="#989CA7" transform="translate(452,298)"/>
<path d="M0 0 C1.32 0.33 2.64 0.66 4 1 C4 1.66 4 2.32 4 3 C5.258125 3.144375 6.51625 3.28875 7.8125 3.4375 C10.42667123 3.73748686 12.47439892 4.15813297 15 5 C13.34905878 6.65094122 11.45514063 6.28867693 9.1875 6.375 C4.3816335 6.35437396 4.3816335 6.35437396 1.375 3.5625 C0 1 0 1 0 0 Z " fill="#A0A4AD" transform="translate(263,207)"/>
<path d="M0 0 C2.10850329 3.16275494 3.28830876 6.13471538 4.625 9.6875 C5.07101563 10.86699219 5.51703125 12.04648438 5.9765625 13.26171875 C6.31429687 14.16535156 6.65203125 15.06898438 7 16 C6.34 16 5.68 16 5 16 C2.8480563 12.77208445 2.79913557 11.71599191 3 8 C2.01 8 1.02 8 0 8 C0 5.36 0 2.72 0 0 Z " fill="#ABAEB6" transform="translate(244,125)"/>
<path d="M0 0 C0.66 0 1.32 0 2 0 C2 0.66 2 1.32 2 2 C2.66 2 3.32 2 4 2 C4 2.66 4 3.32 4 4 C4.61875 4.268125 5.2375 4.53625 5.875 4.8125 C8 6 8 6 10 9 C10 9.99 10 10.98 10 12 C9.34 12 8.68 12 8 12 C6.55699673 10.24115867 5.19308786 8.41679923 3.875 6.5625 C3.15054688 5.55316406 2.42609375 4.54382813 1.6796875 3.50390625 C0 1 0 1 0 0 Z " fill="#9DA4AD" transform="translate(42,298)"/>
<path d="M0 0 C0.99 0.66 1.98 1.32 3 2 C-0.16474305 5.25516428 -3.32752791 8.32008793 -7 11 C-7.66 11 -8.32 11 -9 11 C-8.67 10.01 -8.34 9.02 -8 8 C-7.01 8 -6.02 8 -5 8 C-4.67 7.01 -4.34 6.02 -4 5 C-3.01 4.67 -2.02 4.34 -1 4 C-0.26676204 1.98491642 -0.26676204 1.98491642 0 0 Z " fill="#959BA3" transform="translate(164,269)"/>
<path d="M0 0 C0.99128906 0.32742188 1.98257813 0.65484375 3.00390625 0.9921875 C7.01822678 2.13913622 10.75860244 2.19896279 14.9375 2.125 C15.62134766 2.11597656 16.30519531 2.10695313 17.00976562 2.09765625 C18.67333287 2.07438958 20.33671631 2.03853167 22 2 C22 2.66 22 3.32 22 4 C19.08308475 4.05401695 16.16717276 4.09368066 13.25 4.125 C12.425 4.14175781 11.6 4.15851563 10.75 4.17578125 C9.95078125 4.18222656 9.1515625 4.18867188 8.328125 4.1953125 C7.5949707 4.20578613 6.86181641 4.21625977 6.10644531 4.22705078 C3.70103924 3.96777544 2.08748506 3.19225925 0 2 C0 1.34 0 0.68 0 0 Z " fill="#A8ADB7" transform="translate(115,265)"/>
<path d="M0 0 C0.66 0 1.32 0 2 0 C1.68853528 1.89600369 1.37578283 3.79179587 1.0625 5.6875 C0.88847656 6.74324219 0.71445312 7.79898437 0.53515625 8.88671875 C0.06832879 11.60249604 -0.44422616 14.30124235 -1 17 C-1.33 17 -1.66 17 -2 17 C-2 13.37 -2 9.74 -2 6 C-1.34 6 -0.68 6 0 6 C0 4.02 0 2.04 0 0 Z " fill="#9DA1AB" transform="translate(259,297)"/>
<path d="M0 0 C3.63559661 3.43361902 6.36113346 6.7973607 9 11 C8.67 11.66 8.34 12.32 8 13 C4.3260401 9.62392874 1.94593446 6.60879214 0 2 C0 1.34 0 0.68 0 0 Z " fill="#A8ABB6" transform="translate(452,160)"/>
<path d="M0 0 C0.33 0 0.66 0 1 0 C1.20705455 5.07283639 0.72487541 9.20867943 -1 14 C-1.99 14.495 -1.99 14.495 -3 15 C-2.5547115 9.72684667 -1.91626837 4.98229776 0 0 Z " fill="#A5A9B4" transform="translate(289,332)"/>
<path d="M0 0 C0.66 0 1.32 0 2 0 C2 0.99 2 1.98 2 3 C2.99 3.33 3.98 3.66 5 4 C4.67 4.99 4.34 5.98 4 7 C4.66 7 5.32 7 6 7 C6.33 9.97 6.66 12.94 7 16 C4.35478068 13.35478068 3.55457481 10.33828651 2.375 6.875 C2.14554687 6.21628906 1.91609375 5.55757812 1.6796875 4.87890625 C1.11463758 3.25438774 0.55663723 1.62742029 0 0 Z " fill="#ACB0B7" transform="translate(448,190)"/>
<path d="M0 0 C0 0.66 0 1.32 0 2 C-3.87036007 5.08284263 -8.00786149 7.53198701 -13 8 C-9.81692689 4.43495812 -5.03655764 0 0 0 Z " fill="#A5ACB6" transform="translate(347,180)"/>
<path d="M0 0 C0 0.99 0 1.98 0 3 C-1.74784829 3.36463732 -3.49840502 3.7163078 -5.25 4.0625 C-6.71179688 4.35833984 -6.71179688 4.35833984 -8.203125 4.66015625 C-10.868119 4.98397535 -12.48871723 4.85503199 -15 4 C-12.87607494 3.3299166 -10.75082476 2.66403203 -8.625 2 C-7.44164062 1.62875 -6.25828125 1.2575 -5.0390625 0.875 C-2 0 -2 0 0 0 Z " fill="#B3B7BD" transform="translate(403,317)"/>
<path d="M0 0 C5.75 0.875 5.75 0.875 8 2 C8 3.98 8 5.96 8 8 C6 6.625 6 6.625 4 5 C4 4.34 4 3.68 4 3 C3.34 3 2.68 3 2 3 C2 2.34 2 1.68 2 1 C1.34 0.67 0.68 0.34 0 0 Z " fill="#9EA1AD" transform="translate(52,311)"/>
<path d="M0 0 C0.33 0.66 0.66 1.32 1 2 C2.64551962 2.71727778 4.31422289 3.38325228 6 4 C6.66 4.33 7.32 4.66 8 5 C7.67 5.66 7.34 6.32 7 7 C4.4375 7.625 4.4375 7.625 2 8 C0.74335022 5.09399739 0 3.20395416 0 0 Z " fill="#A0A3AD" transform="translate(74,304)"/>
<path d="M0 0 C3.42931954 3.7559214 4.56429083 8.23466745 6 13 C5.01 12.67 4.02 12.34 3 12 C3 11.01 3 10.02 3 9 C2.34 9 1.68 9 1 9 C0.67 6.03 0.34 3.06 0 0 Z " fill="#A9ADB3" transform="translate(251,141)"/>
<path d="M0 0 C9.41002278 -0.3690205 9.41002278 -0.3690205 14 2 C14 2.66 14 3.32 14 4 C12.22773547 3.71715982 10.457212 3.42339502 8.6875 3.125 C7.20830078 2.88136719 7.20830078 2.88136719 5.69921875 2.6328125 C3 2 3 2 0 0 Z " fill="#A6A9B1" transform="translate(333,337)"/>
<path d="M0 0 C4.05281712 1.22527029 7.44360764 2.69880494 11 5 C9.4375 5.75 9.4375 5.75 7 6 C4.49713591 4.86915563 2.32992278 3.47860484 0 2 C0 1.34 0 0.68 0 0 Z " fill="#AEB0B8" transform="translate(312,307)"/>
<path d="M0 0 C0.71484375 1.734375 0.71484375 1.734375 1 4 C-0.43359375 6.140625 -0.43359375 6.140625 -2.4375 8.25 C-3.09621094 8.95640625 -3.75492187 9.6628125 -4.43359375 10.390625 C-4.95050781 10.92171875 -5.46742188 11.4528125 -6 12 C-6 8.36804504 -5.04546845 7.25286089 -3 4.3125 C-2.443125 3.50425781 -1.88625 2.69601563 -1.3125 1.86328125 C-0.879375 1.24839844 -0.44625 0.63351563 0 0 Z " fill="#A5A9B1" transform="translate(285,160)"/>
<path d="M0 0 C3.48670834 1.1094072 6.77484237 2.26337666 10 4 C10 4.99 10 5.98 10 7 C5.94718288 5.77472971 2.55639236 4.30119506 -1 2 C-0.67 1.34 -0.34 0.68 0 0 Z " fill="#9EA6B1" transform="translate(403,145)"/>
<path d="M0 0 C0.66 0.66 1.32 1.32 2 2 C-0.31 3.65 -2.62 5.3 -5 7 C-5.33 5.68 -5.66 4.36 -6 3 C-4.02 2.01 -2.04 1.02 0 0 Z " fill="#9299A0" transform="translate(187,322)"/>
<path d="M0 0 C3.3 0.99 6.6 1.98 10 3 C9.67 3.66 9.34 4.32 9 5 C5.625 4.75 5.625 4.75 2 4 C1.34 2.68 0.68 1.36 0 0 Z " fill="#A2A5AC" transform="translate(92,316)"/>
<path d="M0 0 C0.66 0.33 1.32 0.66 2 1 C1.67 2.32 1.34 3.64 1 5 C-1.64 5.33 -4.28 5.66 -7 6 C-4.74259377 3.66475218 -2.7194239 1.81294927 0 0 Z " fill="#AAADB5" transform="translate(175,309)"/>
<path d="M0 0 C0.33 0.66 0.66 1.32 1 2 C-0.68474722 5.36949443 -1.8191658 6.87944386 -5 9 C-5.66 8.34 -6.32 7.68 -7 7 C-6.01 6.67 -5.02 6.34 -4 6 C-3.65657551 4.66923011 -3.32380126 3.33568021 -3 2 C-2.01 1.34 -1.02 0.68 0 0 Z " fill="#9297A3" transform="translate(426,302)"/>
<path d="M0 0 C1.051875 0.2475 1.051875 0.2475 2.125 0.5 C5.13888194 1.02415338 7.94713625 1.07099683 11 1 C7.79619983 3.13586678 6.98060033 3.23132175 3.3125 3.125 C2.10013672 3.09792969 2.10013672 3.09792969 0.86328125 3.0703125 C-0.05904297 3.03550781 -0.05904297 3.03550781 -1 3 C-0.67 2.01 -0.34 1.02 0 0 Z " fill="#8A8F99" transform="translate(139,282)"/>
<path d="M0 0 C2.09970981 3.9171057 2.99334562 7.68576696 4 12 C3.34 12 2.68 12 2 12 C-0.13586678 8.79619983 -0.23132175 7.98060033 -0.125 4.3125 C-0.10695313 3.50425781 -0.08890625 2.69601563 -0.0703125 1.86328125 C-0.04710938 1.24839844 -0.02390625 0.63351563 0 0 Z " fill="#AAAFB7" transform="translate(97,241)"/>
<path d="M0 0 C2.45823172 3.68734758 3.01242616 6.69699971 4 11 C3.01 10.67 2.02 10.34 1 10 C-0.1577506 6.52674819 -0.06866652 3.63932552 0 0 Z " fill="#9D9FAA" transform="translate(235,102)"/>
<path d="M0 0 C0.66 0 1.32 0 2 0 C1.34 3.3 0.68 6.6 0 10 C-0.66 9.34 -1.32 8.68 -2 8 C-1.69347955 5.0574037 -1.32728846 2.65457692 0 0 Z " fill="#989BA7" transform="translate(334,216)"/>
<path d="M0 0 C-0.66 1.65 -1.32 3.3 -2 5 C-4.31 5.33 -6.62 5.66 -9 6 C-3.15384615 0 -3.15384615 0 0 0 Z " fill="#ABAFB6" transform="translate(311,138)"/>
<path d="M0 0 C0.66 0 1.32 0 2 0 C0.50902342 3.7952131 -1.75700849 5.61042731 -5 8 C-5 7.01 -5 6.02 -5 5 C-4.34 5 -3.68 5 -3 5 C-2.5359375 4.0409375 -2.5359375 4.0409375 -2.0625 3.0625 C-1 1 -1 1 0 0 Z " fill="#989BA6" transform="translate(446,308)"/>
<path d="M0 0 C-1.44253657 3.36591866 -3.33264727 5.51047079 -6 8 C-6.33 6.68 -6.66 5.36 -7 4 C-2.25 0 -2.25 0 0 0 Z " fill="#999EA6" transform="translate(208,304)"/>
<path d="M0 0 C0.99 0.66 1.98 1.32 3 2 C1.71086513 2.67154933 0.41859796 3.33708859 -0.875 4 C-1.59429687 4.37125 -2.31359375 4.7425 -3.0546875 5.125 C-5 6 -5 6 -7 6 C-7 5.34 -7 4.68 -7 4 C-5.68 4 -4.36 4 -3 4 C-3 3.34 -3 2.68 -3 2 C-2.01 1.34 -1.02 0.68 0 0 Z " fill="#9EA2AE" transform="translate(393,279)"/>
<path d="M0 0 C0.33 0.99 0.66 1.98 1 3 C-1.97 5.475 -1.97 5.475 -5 8 C-5.66 7.67 -6.32 7.34 -7 7 C-4.66666667 4.66666667 -2.33333333 2.33333333 0 0 Z " fill="#A9ADB6" transform="translate(333,188)"/>
<path d="M0 0 C1.32 0.66 2.64 1.32 4 2 C2.02 4.97 2.02 4.97 0 8 C-1.125 6.25 -1.125 6.25 -2 4 C-1.125 1.75 -1.125 1.75 0 0 Z " fill="#889099" transform="translate(291,177)"/>
<path d="M0 0 C1 3 1 3 -0.4375 6.1875 C-1.2109375 7.5796875 -1.2109375 7.5796875 -2 9 C-2.66 8.67 -3.32 8.34 -4 8 C-2.87548273 5.0280615 -1.77706209 2.66559313 0 0 Z " fill="#A0A2AA" transform="translate(277,173)"/>
<path d="M0 0 C0.99 0.33 1.98 0.66 3 1 C3 1.66 3 2.32 3 3 C3.639375 3.28875 4.27875 3.5775 4.9375 3.875 C7 5 7 5 8 7 C6.68 7 5.36 7 4 7 C4 6.34 4 5.68 4 5 C3.34 5 2.68 5 2 5 C2 4.01 2 3.02 2 2 C1.34 2 0.68 2 0 2 C0 1.34 0 0.68 0 0 Z " fill="#AAADB4" transform="translate(436,144)"/>
<path d="M0 0 C1.98 0.99 1.98 0.99 4 2 C4 3.98 4 5.96 4 8 C1.44971017 6.72485508 1.06918289 5.59658703 0 3 C0 2.01 0 1.02 0 0 Z " fill="#A2A7AF" transform="translate(231,145)"/>
<path d="M0 0 C0 0.99 0 1.98 0 3 C-2.64 3.33 -5.28 3.66 -8 4 C-6 1 -6 1 -4 0.3125 C-2 0 -2 0 0 0 Z " fill="#A8AEB4" transform="translate(157,319)"/>
<path d="M0 0 C0 0.66 0 1.32 0 2 C-6.28571429 4.42857143 -6.28571429 4.42857143 -10 3 C-3.375 0 -3.375 0 0 0 Z " fill="#A8ADB5" transform="translate(168,315)"/>
<path d="M0 0 C0 3.51716303 -0.82445585 4.37121748 -3 7 C-4.32 6.67 -5.64 6.34 -7 6 C-6.01 5.67 -5.02 5.34 -4 5 C-4 4.34 -4 3.68 -4 3 C-2 1.375 -2 1.375 0 0 Z " fill="#A9B0B9" transform="translate(188,299)"/>
<path d="M0 0 C1 3 1 3 1 6 C2.43750191 7.68798827 2.43750191 7.68798827 4 9 C2.35 8.67 0.7 8.34 -1 8 C-1.04241723 5.66705225 -1.04092937 3.33297433 -1 1 C-0.67 0.67 -0.34 0.34 0 0 Z " fill="#A8AAB7" transform="translate(328,245)"/>
<path d="M0 0 C0.66 0 1.32 0 2 0 C2.66 1.65 3.32 3.3 4 5 C4.66 5 5.32 5 6 5 C6 5.66 6 6.32 6 7 C3.5625 6.3125 3.5625 6.3125 1 5 C0.1875 2.375 0.1875 2.375 0 0 Z " fill="#A7AAB3" transform="translate(248,250)"/>
<path d="M0 0 C0.66 0.66 1.32 1.32 2 2 C1.67 2.66 1.34 3.32 1 4 C0.34 4 -0.32 4 -1 4 C-1.66 5.65 -2.32 7.3 -3 9 C-3.75 7.3125 -3.75 7.3125 -4 5 C-2.0625 2.25 -2.0625 2.25 0 0 Z " fill="#A4A7B3" transform="translate(300,168)"/>
<path d="M0 0 C2.15377564 2.62198774 3.40072174 4.64404172 4 8 C3.01 8 2.02 8 1 8 C-0.35439668 5.29120665 -0.06501451 2.99066732 0 0 Z " fill="#A9AEB8" transform="translate(259,158)"/>
<path d="M0 0 C1.98 0.495 1.98 0.495 4 1 C4 1.66 4 2.32 4 3 C5.32 3.33 6.64 3.66 8 4 C7.01 4.495 7.01 4.495 6 5 C3.64018187 4.06421005 1.30368736 3.06652192 -1 2 C-0.67 1.34 -0.34 0.68 0 0 Z " fill="#A9ADB3" transform="translate(86,333)"/>
<path d="M0 0 C0.66 0.33 1.32 0.66 2 1 C-0.31 2.65 -2.62 4.3 -5 6 C-5.66 5.34 -6.32 4.68 -7 4 C-1.7265625 0.77734375 -1.7265625 0.77734375 0 0 Z " fill="#989BA1" transform="translate(431,322)"/>
<path d="M0 0 C0.66 0.33 1.32 0.66 2 1 C0.68 3.31 -0.64 5.62 -2 8 C-2.66 7.67 -3.32 7.34 -4 7 C-3.34 5.35 -2.68 3.7 -2 2 C-1.34 2 -0.68 2 0 2 C0 1.34 0 0.68 0 0 Z " fill="#A1A5AD" transform="translate(218,286)"/>
<path d="M0 0 C0.33 0.99 0.66 1.98 1 3 C-3.455 3.495 -3.455 3.495 -8 4 C-5.33440687 2.22293791 -2.9719385 1.12451727 0 0 Z " fill="#B2B5BE" transform="translate(145,263)"/>
<path d="M0 0 C3 3.75 3 3.75 3 6 C3.66 6 4.32 6 5 6 C5 6.66 5 7.32 5 8 C3.68 7.67 2.36 7.34 1 7 C0.67 4.69 0.34 2.38 0 0 Z " fill="#A8AAB5" transform="translate(268,175)"/>
<path d="M0 0 C0.99 0.33 1.98 0.66 3 1 C2.67 1.66 2.34 2.32 2 3 C-0.3140622 3.73075648 -2.64828869 4.40138258 -5 5 C-4.67 4.01 -4.34 3.02 -4 2 C-2.68 2 -1.36 2 0 2 C0 1.34 0 0.68 0 0 Z " fill="#A5ADB4" transform="translate(332,145)"/>
</svg>
